<svg xmlns="http://www.w3.org/2000/svg" xmlns:xlink="http://www.w3.org/1999/xlink" x="0px" y="0px" width="50px"
	 height="50px" viewBox="0 0 50 50" style="enable-background:new 0 0 50 50;" xml:space="preserve">

		<circle class="svg-circle" cx="25" cy="25" r="25"/>
		<path class="svg-point" d="M19.156,40.668c0-3.565,2.477-6.141,5.844-6.141c3.565,0,5.844,2.575,5.844,6.141
			c0,3.467-2.278,6.141-5.844,6.141C21.534,46.809,19.156,44.135,19.156,40.668z M22.541,31.07c0,0-4.096-24.093-4.096-24.667
			s0-2.294,6.555-2.294s6.555,1.721,6.555,2.294s-4.097,24.667-4.097,24.667s0,0.574-2.458,0.574S22.541,31.07,22.541,31.07z"/>
</svg>
